# Blender v2.69 (sub 0) OBJ File: ''
# www.blender.org
mtllib cone.mtl
o Cone
v -0.010105 -0.997946 -0.996517
v 0.184985 -0.997946 -0.977302
v 0.372578 -0.997946 -0.920396
v 0.545465 -0.997946 -0.827986
v 0.697001 -0.997946 -0.703623
v 0.821364 -0.997946 -0.552087
v 0.913774 -0.997946 -0.379200
v 0.970680 -0.997946 -0.191607
v 0.989895 -0.997946 0.003483
v -0.010105 1.002054 0.003483
v 0.970680 -0.997946 0.198574
v 0.913774 -0.997946 0.386167
v 0.821364 -0.997946 0.559053
v 0.697001 -0.997946 0.710590
v 0.545465 -0.997946 0.834953
v 0.372578 -0.997946 0.927363
v 0.184985 -0.997946 0.984269
v -0.010106 -0.997946 1.003483
v -0.205196 -0.997946 0.984268
v -0.392789 -0.997946 0.927363
v -0.565676 -0.997946 0.834953
v -0.717213 -0.997946 0.710590
v -0.841575 -0.997946 0.559053
v -0.933985 -0.997946 0.386166
v -0.990891 -0.997946 0.198573
v -1.010105 -0.997946 0.003482
v -0.990890 -0.997946 -0.191608
v -0.933984 -0.997946 -0.379201
v -0.841574 -0.997946 -0.552088
v -0.717211 -0.997946 -0.703624
v -0.565674 -0.997946 -0.827987
v -0.392787 -0.997946 -0.920397
v -0.205194 -0.997946 -0.977302
vt 0.463920 0.568810
vt 0.731960 0.978293
vt 0.438775 0.591420
vt 0.724205 0.000000
vt 0.757901 0.488248
vt 0.686565 0.001961
vt 0.495103 0.547639
vt 0.531125 0.528719
vt 0.570601 0.512779
vt 0.612015 0.500430
vt 0.653774 0.492147
vt 0.694275 0.488248
vt 0.731960 0.488884
vt 0.763143 0.547639
vt 1.000000 0.978293
vt 0.731960 0.568810
vt 0.799165 0.528719
vt 0.838641 0.512779
vt 0.880054 0.500430
vt 0.921814 0.492147
vt 0.962315 0.488248
vt 1.000000 0.488884
vt 0.401089 0.928820
vt 0.438775 0.438775
vt 0.438775 0.928184
vt 0.360589 0.924921
vt 0.318829 0.916638
vt 0.277415 0.904289
vt 0.237939 0.888349
vt 0.201918 0.869429
vt 0.170735 0.848258
vt 0.145589 0.825648
vt 0.462304 0.098192
vt 0.438775 0.122479
vt 0.491955 0.074924
vt 0.526589 0.053569
vt 0.564874 0.034948
vt 0.605339 0.019777
vt 0.646429 0.008638
vt 0.757901 0.002832
vt 0.240995 0.438775
vt 0.197780 0.438775
vt 0.283380 0.430344
vt 0.155395 0.430344
vt 0.115469 0.413806
vt 0.079536 0.389797
vt 0.048978 0.359239
vt 0.024969 0.323306
vt 0.008431 0.283380
vt 0.000000 0.240995
vt 0.000000 0.197780
vt 0.008431 0.155395
vt 0.024969 0.115469
vt 0.048978 0.079536
vt 0.430344 0.283380
vt 0.438775 0.197780
vt 0.438775 0.240995
vt 0.079536 0.048978
vt 0.115468 0.024969
vt 0.240995 0.000000
vt 0.155394 0.008431
vt 0.197780 0.000000
vt 0.359239 0.048978
vt 0.283380 0.008431
vt 0.323306 0.024969
vt 0.430344 0.155394
vt 0.323306 0.413806
vt 0.359239 0.389797
vt 0.389797 0.079536
vt 0.413806 0.115469
vt 0.389797 0.359239
vt 0.413806 0.323306
vn -0.259887 0.445488 -0.856737
vn 0.087754 0.445488 -0.890977
vn -0.422035 0.445488 -0.789574
vn -0.567964 0.445488 -0.692067
vn -0.692066 0.445488 -0.567966
vn -0.789573 0.445488 -0.422037
vn -0.856737 0.445488 -0.259889
vn -0.890977 0.445488 -0.087754
vn -0.890977 0.445488 0.087753
vn -0.856737 0.445488 0.259887
vn -0.789574 0.445488 0.422035
vn -0.692067 0.445488 0.567964
vn -0.567965 0.445488 0.692066
vn -0.422036 0.445488 0.789573
vn -0.259889 0.445488 0.856737
vn -0.087754 0.445488 0.890977
vn 0.087753 0.445488 0.890977
vn 0.259888 0.445488 0.856737
vn 0.422036 0.445488 0.789573
vn 0.567965 0.445488 0.692067
vn 0.692067 0.445488 0.567965
vn 0.789573 0.445488 0.422035
vn 0.856737 0.445488 0.259888
vn 0.890977 0.445488 0.087753
vn 0.890977 0.445488 -0.087754
vn 0.856737 0.445488 -0.259888
vn 0.789573 0.445488 -0.422035
vn 0.692067 0.445488 -0.567965
vn 0.567965 0.445488 -0.692067
vn 0.422036 0.445488 -0.789573
vn -0.087753 0.445488 -0.890977
vn 0.259888 0.445488 -0.856737
vn 0.000000 -1.000000 0.000000
vn 0.000000 -1.000000 0.000005
vn 0.000000 -1.000000 0.000001
vn 0.000000 -1.000000 0.000004
vn 0.000000 -1.000000 -0.000003
vn 0.000000 -1.000000 0.000002
usemtl None
s off
f 32/1/1 10/2/1 33/3/1
f 1/4/2 10/5/2 2/6/2
f 31/7/3 10/2/3 32/1/3
f 30/8/4 10/2/4 31/7/4
f 29/9/5 10/2/5 30/8/5
f 28/10/6 10/2/6 29/9/6
f 27/11/7 10/2/7 28/10/7
f 26/12/8 10/2/8 27/11/8
f 25/13/9 10/2/9 26/12/9
f 24/14/10 10/15/10 25/16/10
f 23/17/11 10/15/11 24/14/11
f 22/18/12 10/15/12 23/17/12
f 21/19/13 10/15/13 22/18/13
f 20/20/14 10/15/14 21/19/14
f 19/21/15 10/15/15 20/20/15
f 18/22/16 10/15/16 19/21/16
f 17/23/17 10/24/17 18/25/17
f 16/26/18 10/24/18 17/23/18
f 15/27/19 10/24/19 16/26/19
f 14/28/20 10/24/20 15/27/20
f 13/29/21 10/24/21 14/28/21
f 12/30/22 10/24/22 13/29/22
f 11/31/23 10/24/23 12/30/23
f 9/32/24 10/24/24 11/31/24
f 8/33/25 10/5/25 9/34/25
f 7/35/26 10/5/26 8/33/26
f 6/36/27 10/5/27 7/35/27
f 5/37/28 10/5/28 6/36/28
f 4/38/29 10/5/29 5/37/29
f 3/39/30 10/5/30 4/38/30
f 33/40/31 10/5/31 1/4/31
f 2/6/32 10/5/32 3/39/32
f 1/41/33 2/42/33 33/43/33
f 2/42/34 3/44/34 33/43/34
f 3/44/33 4/45/33 33/43/33
f 4/45/33 5/46/33 33/43/33
f 5/46/33 6/47/33 33/43/33
f 6/47/33 7/48/33 33/43/33
f 7/48/33 8/49/33 33/43/33
f 8/49/33 9/50/33 33/43/33
f 9/50/35 11/51/35 33/43/35
f 11/51/33 12/52/33 33/43/33
f 12/52/33 13/53/33 33/43/33
f 13/53/33 14/54/33 33/43/33
f 28/55/33 26/56/33 27/57/33
f 14/54/33 15/58/33 16/59/33
f 33/43/33 14/54/33 16/59/33
f 19/60/36 17/61/36 18/62/36
f 19/60/37 16/59/37 17/61/37
f 33/43/33 16/59/33 19/60/33
f 22/63/33 20/64/33 21/65/33
f 22/63/35 19/60/35 20/64/35
f 33/43/33 19/60/33 22/63/33
f 28/55/33 25/66/33 26/56/33
f 32/67/33 33/43/33 22/63/33
f 31/68/33 32/67/33 22/63/33
f 25/66/38 23/69/38 24/70/38
f 28/55/33 23/69/33 25/66/33
f 30/71/33 31/68/33 22/63/33
f 29/72/33 30/71/33 22/63/33
f 28/55/33 29/72/33 23/69/33
f 29/72/33 22/63/33 23/69/33
